<svg width="40" height="40" viewBox="0 0 40 40" fill="none" xmlns="http://www.w3.org/2000/svg">
<path fill-rule="evenodd" clip-rule="evenodd" d="M20 3.75C11.025 3.75 3.75 11.025 3.75 20C3.75 28.975 11.025 36.25 20 36.25C28.975 36.25 36.25 28.975 36.25 20C36.25 11.025 28.975 3.75 20 3.75ZM1.25 20C1.25 9.645 9.645 1.25 20 1.25C30.355 1.25 38.75 9.645 38.75 20C38.75 30.355 30.355 38.75 20 38.75C9.645 38.75 1.25 30.355 1.25 20Z" fill="#262522"/>
<path fill-rule="evenodd" clip-rule="evenodd" d="M2.91675 4.16663C2.91675 3.83511 3.04844 3.51716 3.28286 3.28274C3.51729 3.04832 3.83523 2.91663 4.16675 2.91663H12.5001C12.8316 2.91663 13.1495 3.04832 13.384 3.28274C13.6184 3.51716 13.7501 3.83511 13.7501 4.16663C13.7501 4.49815 13.6184 4.81609 13.384 5.05051C13.1495 5.28493 12.8316 5.41663 12.5001 5.41663H5.41675V12.5C5.41675 12.8315 5.28505 13.1494 5.05063 13.3838C4.81621 13.6183 4.49827 13.75 4.16675 13.75C3.83523 13.75 3.51729 13.6183 3.28286 13.3838C3.04844 13.1494 2.91675 12.8315 2.91675 12.5V4.16663ZM26.2501 4.16663C26.2501 3.83511 26.3818 3.51716 26.6162 3.28274C26.8506 3.04832 27.1686 2.91663 27.5001 2.91663H35.8334C36.1649 2.91663 36.4829 3.04832 36.7173 3.28274C36.9517 3.51716 37.0834 3.83511 37.0834 4.16663V12.5C37.0834 12.8315 36.9517 13.1494 36.7173 13.3838C36.4829 13.6183 36.1649 13.75 35.8334 13.75C35.5019 13.75 35.184 13.6183 34.9495 13.3838C34.7151 13.1494 34.5834 12.8315 34.5834 12.5V5.41663H27.5001C27.1686 5.41663 26.8506 5.28493 26.6162 5.05051C26.3818 4.81609 26.2501 4.49815 26.2501 4.16663ZM4.16675 26.25C4.49827 26.25 4.81621 26.3817 5.05063 26.6161C5.28505 26.8505 5.41675 27.1684 5.41675 27.5V34.5833H11.6667C11.9983 34.5833 12.3162 34.715 12.5506 34.9494C12.7851 35.1838 12.9167 35.5018 12.9167 35.8333C12.9167 36.1648 12.7851 36.4828 12.5506 36.7172C12.3162 36.9516 11.9983 37.0833 11.6667 37.0833H4.16675C3.83523 37.0833 3.51729 36.9516 3.28286 36.7172C3.04844 36.4828 2.91675 36.1648 2.91675 35.8333V27.5C2.91675 27.1684 3.04844 26.8505 3.28286 26.6161C3.51729 26.3817 3.83523 26.25 4.16675 26.25ZM35.8334 26.25C36.1649 26.25 36.4829 26.3817 36.7173 26.6161C36.9517 26.8505 37.0834 27.1684 37.0834 27.5V35.8333C37.0834 36.1648 36.9517 36.4828 36.7173 36.7172C36.4829 36.9516 36.1649 37.0833 35.8334 37.0833H27.5001C27.1686 37.0833 26.8506 36.9516 26.6162 36.7172C26.3818 36.4828 26.2501 36.1648 26.2501 35.8333C26.2501 35.5018 26.3818 35.1838 26.6162 34.9494C26.8506 34.715 27.1686 34.5833 27.5001 34.5833H34.5834V27.5C34.5834 27.1684 34.7151 26.8505 34.9495 26.6161C35.184 26.3817 35.5019 26.25 35.8334 26.25ZM11.2217 12.96C11.3698 12.6634 11.6297 12.4377 11.9441 12.3327C12.2585 12.2277 12.6018 12.2519 12.8984 12.4L16.1317 14.0166C17.2862 14.5945 18.2817 15.4459 19.0317 16.4966L23.0001 22.05C23.5151 22.7683 24.1967 23.35 24.9867 23.7466L28.2201 25.3633C28.3712 25.4341 28.5065 25.5344 28.6182 25.6584C28.7299 25.7824 28.8156 25.9274 28.8704 26.085C28.9251 26.2426 28.9478 26.4096 28.9369 26.5761C28.9261 26.7426 28.8821 26.9053 28.8074 27.0545C28.7328 27.2037 28.629 27.3364 28.5022 27.4449C28.3754 27.5534 28.2282 27.6354 28.0693 27.6861C27.9103 27.7367 27.7428 27.7551 27.5766 27.74C27.4105 27.7249 27.249 27.6768 27.1017 27.5983L23.8684 25.9816C22.7136 25.4045 21.7174 24.5536 20.9667 23.5033L17.0001 17.95C16.4862 17.2308 15.8042 16.6483 15.0134 16.2533L11.7801 14.6366C11.4838 14.4882 11.2585 14.2283 11.1538 13.9139C11.0491 13.5995 11.0736 13.2564 11.2217 12.96ZM17.1134 9.42329C17.1869 9.27637 17.2886 9.14536 17.4127 9.03777C17.5369 8.93018 17.681 8.84811 17.8369 8.79625C17.9927 8.7444 18.1573 8.72378 18.3211 8.73557C18.485 8.74736 18.6449 8.79132 18.7917 8.86496L21.7684 10.3533C23.1159 11.0265 24.2433 12.0701 25.0184 13.3616L26.5551 15.925C27.0851 16.8083 27.8551 17.5216 28.7768 17.9833L31.7551 19.4716C32.0395 19.6265 32.2527 19.8858 32.3497 20.1948C32.4468 20.5037 32.4201 20.8383 32.2754 21.128C32.1306 21.4177 31.8791 21.64 31.5737 21.7479C31.2684 21.8558 30.9331 21.841 30.6384 21.7066L27.6601 20.2183C26.3126 19.5451 25.1852 18.5015 24.4101 17.21L22.8734 14.6483C22.3436 13.7649 21.573 13.0509 20.6517 12.59L17.6734 11.1016C17.5265 11.0282 17.3955 10.9264 17.2879 10.8023C17.1803 10.6782 17.0982 10.5341 17.0464 10.3782C16.9945 10.2223 16.9739 10.0577 16.9857 9.8939C16.9975 9.73005 17.0414 9.57014 17.1151 9.42329H17.1134ZM7.68675 18.8516C7.83513 18.5553 8.0951 18.3301 8.4095 18.2254C8.72391 18.1207 9.06702 18.1451 9.36342 18.2933L12.3417 19.7816C13.688 20.4553 14.8142 21.4989 15.5884 22.79L17.1267 25.3533C17.6567 26.2366 18.4267 26.95 19.3484 27.41L22.3267 28.9C22.4795 28.9696 22.6166 29.0694 22.73 29.1932C22.8433 29.317 22.9306 29.4624 22.9865 29.6207C23.0425 29.779 23.066 29.9469 23.0556 30.1144C23.0452 30.282 23.0012 30.4457 22.9262 30.5959C22.8512 30.7461 22.7467 30.8796 22.6189 30.9885C22.4911 31.0974 22.3427 31.1795 22.1826 31.2298C22.0224 31.2801 21.8538 31.2976 21.6867 31.2813C21.5196 31.265 21.3575 31.2153 21.2101 31.135L18.2317 29.6466C16.8843 28.9734 15.7568 27.9298 14.9817 26.6383L13.4451 24.075C12.9151 23.1922 12.1444 22.4788 11.2234 22.0183L8.24508 20.5283C7.94878 20.3799 7.72353 20.1199 7.61883 19.8055C7.51413 19.4911 7.53856 19.148 7.68675 18.8516Z" fill="#262522"/>
</svg>
