<svg width="30" height="38" viewBox="0 0 30 38" fill="none" xmlns="http://www.w3.org/2000/svg">
<path fill-rule="evenodd" clip-rule="evenodd" d="M0.416748 34C0.416748 33.0054 0.811836 32.0516 1.5151 31.3483C2.21836 30.6451 3.17219 30.25 4.16675 30.25H25.8334C26.828 30.25 27.7818 30.6451 28.4851 31.3483C29.1883 32.0516 29.5834 33.0054 29.5834 34C29.5834 34.9946 29.1883 35.9484 28.4851 36.6516C27.7818 37.3549 26.828 37.75 25.8334 37.75H4.16675C3.17219 37.75 2.21836 37.3549 1.5151 36.6516C0.811836 35.9484 0.416748 34.9946 0.416748 34ZM4.16675 32.75C3.83523 32.75 3.51728 32.8817 3.28286 33.1161C3.04844 33.3505 2.91675 33.6685 2.91675 34C2.91675 34.3315 3.04844 34.6495 3.28286 34.8839C3.51728 35.1183 3.83523 35.25 4.16675 35.25H25.8334C26.1649 35.25 26.4829 35.1183 26.7173 34.8839C26.9517 34.6495 27.0834 34.3315 27.0834 34C27.0834 33.6685 26.9517 33.3505 26.7173 33.1161C26.4829 32.8817 26.1649 32.75 25.8334 32.75H4.16675Z" fill="#262522"/>
<path fill-rule="evenodd" clip-rule="evenodd" d="M0.416748 29C0.416748 28.0054 0.811836 27.0516 1.5151 26.3483C2.21836 25.6451 3.17219 25.25 4.16675 25.25H25.8334C26.828 25.25 27.7818 25.6451 28.4851 26.3483C29.1883 27.0516 29.5834 28.0054 29.5834 29C29.5834 29.9946 29.1883 30.9484 28.4851 31.6516C27.7818 32.3549 26.828 32.75 25.8334 32.75H4.16675C3.17219 32.75 2.21836 32.3549 1.5151 31.6516C0.811836 30.9484 0.416748 29.9946 0.416748 29ZM4.16675 27.75C3.83523 27.75 3.51728 27.8817 3.28286 28.1161C3.04844 28.3505 2.91675 28.6685 2.91675 29C2.91675 29.3315 3.04844 29.6495 3.28286 29.8839C3.51728 30.1183 3.83523 30.25 4.16675 30.25H25.8334C26.1649 30.25 26.4829 30.1183 26.7173 29.8839C26.9517 29.6495 27.0834 29.3315 27.0834 29C27.0834 28.6685 26.9517 28.3505 26.7173 28.1161C26.4829 27.8817 26.1649 27.75 25.8334 27.75H4.16675Z" fill="#262522"/>
<path fill-rule="evenodd" clip-rule="evenodd" d="M0.416748 24C0.416748 23.0054 0.811836 22.0516 1.5151 21.3483C2.21836 20.6451 3.17219 20.25 4.16675 20.25H25.8334C26.828 20.25 27.7818 20.6451 28.4851 21.3483C29.1883 22.0516 29.5834 23.0054 29.5834 24C29.5834 24.9946 29.1883 25.9484 28.4851 26.6516C27.7818 27.3549 26.828 27.75 25.8334 27.75H4.16675C3.17219 27.75 2.21836 27.3549 1.5151 26.6516C0.811836 25.9484 0.416748 24.9946 0.416748 24ZM4.16675 22.75C3.83523 22.75 3.51728 22.8817 3.28286 23.1161C3.04844 23.3505 2.91675 23.6685 2.91675 24C2.91675 24.3315 3.04844 24.6495 3.28286 24.8839C3.51728 25.1183 3.83523 25.25 4.16675 25.25H25.8334C26.1649 25.25 26.4829 25.1183 26.7173 24.8839C26.9517 24.6495 27.0834 24.3315 27.0834 24C27.0834 23.6685 26.9517 23.3505 26.7173 23.1161C26.4829 22.8817 26.1649 22.75 25.8334 22.75H4.16675Z" fill="#262522"/>
<path fill-rule="evenodd" clip-rule="evenodd" d="M4.16675 17.75C3.83523 17.75 3.51728 17.8817 3.28286 18.1161C3.04844 18.3505 2.91675 18.6685 2.91675 19C2.91675 19.3315 3.04844 19.6495 3.28286 19.8839C3.51728 20.1183 3.83523 20.25 4.16675 20.25H25.8334C26.1649 20.25 26.4829 20.1183 26.7173 19.8839C26.9517 19.6495 27.0834 19.3315 27.0834 19C27.0834 18.6685 26.9517 18.3505 26.7173 18.1161C26.4829 17.8817 26.1649 17.75 25.8334 17.75H17.5001C17.1686 17.75 16.8506 17.6183 16.6162 17.3839C16.3818 17.1495 16.2501 16.8315 16.2501 16.5C16.2501 16.1685 16.3818 15.8505 16.6162 15.6161C16.8506 15.3817 17.1686 15.25 17.5001 15.25H25.8334C26.828 15.25 27.7818 15.6451 28.4851 16.3483C29.1883 17.0516 29.5834 18.0054 29.5834 19C29.5834 19.9946 29.1883 20.9484 28.4851 21.6516C27.7818 22.3549 26.828 22.75 25.8334 22.75H4.16675C3.17219 22.75 2.21836 22.3549 1.5151 21.6516C0.811836 20.9484 0.416748 19.9946 0.416748 19C0.416748 18.0054 0.811836 17.0516 1.5151 16.3483C2.21836 15.6451 3.17219 15.25 4.16675 15.25H12.5001C12.8316 15.25 13.1495 15.3817 13.384 15.6161C13.6184 15.8505 13.7501 16.1685 13.7501 16.5C13.7501 16.8315 13.6184 17.1495 13.384 17.3839C13.1495 17.6183 12.8316 17.75 12.5001 17.75H4.16675Z" fill="#262522"/>
<path fill-rule="evenodd" clip-rule="evenodd" d="M4.16675 12.75C3.83523 12.75 3.51728 12.8817 3.28286 13.1161C3.04844 13.3505 2.91675 13.6685 2.91675 14C2.91675 14.3315 3.04844 14.6495 3.28286 14.8839C3.51728 15.1183 3.83523 15.25 4.16675 15.25H12.5001C12.8316 15.25 13.1495 15.3817 13.384 15.6161C13.6184 15.8505 13.7501 16.1685 13.7501 16.5C13.7501 16.8315 13.6184 17.1495 13.384 17.3839C13.1495 17.6183 12.8316 17.75 12.5001 17.75H4.16675C3.17219 17.75 2.21836 17.3549 1.5151 16.6516C0.811836 15.9484 0.416748 14.9946 0.416748 14C0.416748 13.0054 0.811836 12.0516 1.5151 11.3483C2.21836 10.6451 3.17219 10.25 4.16675 10.25H12.5001C12.8316 10.25 13.1495 10.3817 13.384 10.6161C13.6184 10.8505 13.7501 11.1685 13.7501 11.5C13.7501 11.8315 13.6184 12.1495 13.384 12.3839C13.1495 12.6183 12.8316 12.75 12.5001 12.75H4.16675ZM16.2501 11.5C16.2501 11.1685 16.3818 10.8505 16.6162 10.6161C16.8506 10.3817 17.1686 10.25 17.5001 10.25H25.8334C26.828 10.25 27.7818 10.6451 28.4851 11.3483C29.1883 12.0516 29.5834 13.0054 29.5834 14C29.5834 14.9946 29.1883 15.9484 28.4851 16.6516C27.7818 17.3549 26.828 17.75 25.8334 17.75H17.5001C17.1686 17.75 16.8506 17.6183 16.6162 17.3839C16.3818 17.1495 16.2501 16.8315 16.2501 16.5C16.2501 16.1685 16.3818 15.8505 16.6162 15.6161C16.8506 15.3817 17.1686 15.25 17.5001 15.25H25.8334C26.1649 15.25 26.4829 15.1183 26.7173 14.8839C26.9517 14.6495 27.0834 14.3315 27.0834 14C27.0834 13.6685 26.9517 13.3505 26.7173 13.1161C26.4829 12.8817 26.1649 12.75 25.8334 12.75H17.5001C17.1686 12.75 16.8506 12.6183 16.6162 12.3839C16.3818 12.1495 16.2501 11.8315 16.2501 11.5Z" fill="#262522"/>
<path fill-rule="evenodd" clip-rule="evenodd" d="M4.16675 7.75C3.83523 7.75 3.51728 7.8817 3.28286 8.11612C3.04844 8.35054 2.91675 8.66848 2.91675 9C2.91675 9.33152 3.04844 9.64946 3.28286 9.88388C3.51728 10.1183 3.83523 10.25 4.16675 10.25H12.5001C12.8316 10.25 13.1495 10.3817 13.384 10.6161C13.6184 10.8505 13.7501 11.1685 13.7501 11.5C13.7501 11.8315 13.6184 12.1495 13.384 12.3839C13.1495 12.6183 12.8316 12.75 12.5001 12.75H4.16675C3.17219 12.75 2.21836 12.3549 1.5151 11.6516C0.811836 10.9484 0.416748 9.99456 0.416748 9C0.416748 8.00544 0.811836 7.05161 1.5151 6.34835C2.21836 5.64509 3.17219 5.25 4.16675 5.25H12.5001C12.8316 5.25 13.1495 5.3817 13.384 5.61612C13.6184 5.85054 13.7501 6.16848 13.7501 6.5C13.7501 6.83152 13.6184 7.14946 13.384 7.38388C13.1495 7.6183 12.8316 7.75 12.5001 7.75H4.16675ZM16.2501 6.5C16.2501 6.16848 16.3818 5.85054 16.6162 5.61612C16.8506 5.3817 17.1686 5.25 17.5001 5.25H25.8334C26.828 5.25 27.7818 5.64509 28.4851 6.34835C29.1883 7.05161 29.5834 8.00544 29.5834 9C29.5834 9.99456 29.1883 10.9484 28.4851 11.6516C27.7818 12.3549 26.828 12.75 25.8334 12.75H17.5001C17.1686 12.75 16.8506 12.6183 16.6162 12.3839C16.3818 12.1495 16.2501 11.8315 16.2501 11.5C16.2501 11.1685 16.3818 10.8505 16.6162 10.6161C16.8506 10.3817 17.1686 10.25 17.5001 10.25H25.8334C26.1649 10.25 26.4829 10.1183 26.7173 9.88388C26.9517 9.64946 27.0834 9.33152 27.0834 9C27.0834 8.66848 26.9517 8.35054 26.7173 8.11612C26.4829 7.8817 26.1649 7.75 25.8334 7.75H17.5001C17.1686 7.75 16.8506 7.6183 16.6162 7.38388C16.3818 7.14946 16.2501 6.83152 16.2501 6.5Z" fill="#262522"/>
<path fill-rule="evenodd" clip-rule="evenodd" d="M7.0835 4C7.0835 3.00544 7.47858 2.05161 8.18185 1.34835C8.88511 0.645088 9.83893 0.25 10.8335 0.25H19.1668C20.1614 0.25 21.1152 0.645088 21.8185 1.34835C22.5217 2.05161 22.9168 3.00544 22.9168 4C22.9168 4.99456 22.5217 5.94839 21.8185 6.65165C21.1152 7.35491 20.1614 7.75 19.1668 7.75H18.7502V15.6667C18.7502 16.6612 18.3551 17.6151 17.6518 18.3183C16.9486 19.0216 15.9947 19.4167 15.0002 19.4167C14.0056 19.4167 13.0518 19.0216 12.3485 18.3183C11.6453 17.6151 11.2502 16.6612 11.2502 15.6667V7.75H10.8335C9.83893 7.75 8.88511 7.35491 8.18185 6.65165C7.47858 5.94839 7.0835 4.99456 7.0835 4ZM10.8335 2.75C10.502 2.75 10.184 2.8817 9.94961 3.11612C9.71519 3.35054 9.5835 3.66848 9.5835 4C9.5835 4.33152 9.71519 4.64946 9.94961 4.88388C10.184 5.1183 10.502 5.25 10.8335 5.25H12.5002C12.8317 5.25 13.1496 5.3817 13.384 5.61612C13.6185 5.85054 13.7502 6.16848 13.7502 6.5V15.6667C13.7502 15.9982 13.8819 16.3161 14.1163 16.5505C14.3507 16.785 14.6686 16.9167 15.0002 16.9167C15.3317 16.9167 15.6496 16.785 15.884 16.5505C16.1185 16.3161 16.2502 15.9982 16.2502 15.6667V6.5C16.2502 6.16848 16.3819 5.85054 16.6163 5.61612C16.8507 5.3817 17.1686 5.25 17.5002 5.25H19.1668C19.4983 5.25 19.8163 5.1183 20.0507 4.88388C20.2851 4.64946 20.4168 4.33152 20.4168 4C20.4168 3.66848 20.2851 3.35054 20.0507 3.11612C19.8163 2.8817 19.4983 2.75 19.1668 2.75H10.8335Z" fill="#262522"/>
</svg>
