<svg width="40" height="40" viewBox="0 0 40 40" fill="none" xmlns="http://www.w3.org/2000/svg">
<g clip-path="url(#clip0_37_3742)">
<path fill-rule="evenodd" clip-rule="evenodd" d="M0.416748 16.6666C0.416748 7.69163 7.69175 0.416626 16.6667 0.416626H23.3334C32.3084 0.416626 39.5834 7.69163 39.5834 16.6666C39.5834 17.4402 39.2761 18.182 38.7291 18.729C38.1822 19.276 37.4403 19.5833 36.6667 19.5833H3.33341C2.55987 19.5833 1.818 19.276 1.27102 18.729C0.724039 18.182 0.416748 17.4402 0.416748 16.6666ZM16.6667 2.91663C13.02 2.91663 9.52266 4.36528 6.94403 6.94391C4.3654 9.52253 2.91675 13.0199 2.91675 16.6666C2.91675 16.8966 3.10341 17.0833 3.33341 17.0833H36.6667C36.7773 17.0833 36.8832 17.0394 36.9614 16.9613C37.0395 16.8831 37.0834 16.7771 37.0834 16.6666C37.0834 14.861 36.7278 13.073 36.0368 11.4047C35.3458 9.7365 34.3329 8.22071 33.0561 6.94391C31.7793 5.6671 30.2635 4.65428 28.5953 3.96328C26.9271 3.27228 25.1391 2.91663 23.3334 2.91663H16.6667ZM0.416748 33.3333C0.416748 34.9909 1.07523 36.5806 2.24733 37.7527C3.41943 38.9248 5.00915 39.5833 6.66675 39.5833H33.3334C34.991 39.5833 36.5807 38.9248 37.7528 37.7527C38.9249 36.5806 39.5834 34.9909 39.5834 33.3333V30C39.5834 29.2264 39.2761 28.4845 38.7291 27.9376C38.1822 27.3906 37.4403 27.0833 36.6667 27.0833H17.5001C17.1686 27.0833 16.8506 27.215 16.6162 27.4494C16.3818 27.6838 16.2501 28.0018 16.2501 28.3333C16.2501 28.6648 16.3818 28.9828 16.6162 29.2172C16.8506 29.4516 17.1686 29.5833 17.5001 29.5833H36.6667C36.7773 29.5833 36.8832 29.6272 36.9614 29.7053C37.0395 29.7835 37.0834 29.8895 37.0834 30V33.3333C37.0834 34.3279 36.6883 35.2817 35.9851 35.9849C35.2818 36.6882 34.328 37.0833 33.3334 37.0833H6.66675C5.67219 37.0833 4.71836 36.6882 4.0151 35.9849C3.31184 35.2817 2.91675 34.3279 2.91675 33.3333V30C2.91675 29.8895 2.96065 29.7835 3.03879 29.7053C3.11693 29.6272 3.22291 29.5833 3.33341 29.5833H10.0001C10.3316 29.5833 10.6495 29.4516 10.884 29.2172C11.1184 28.9828 11.2501 28.6648 11.2501 28.3333C11.2501 28.0018 11.1184 27.6838 10.884 27.4494C10.6495 27.215 10.3316 27.0833 10.0001 27.0833H3.33341C2.55987 27.0833 1.818 27.3906 1.27102 27.9376C0.724039 28.4845 0.416748 29.2264 0.416748 30V33.3333Z" fill="#262522"/>
<path fill-rule="evenodd" clip-rule="evenodd" d="M0.416748 20.8333C0.416748 19.8387 0.811836 18.8849 1.5151 18.1816C2.21836 17.4783 3.17219 17.0833 4.16675 17.0833H35.8334C36.828 17.0833 37.7818 17.4783 38.4851 18.1816C39.1883 18.8849 39.5834 19.8387 39.5834 20.8333C39.5834 21.8278 39.1883 22.7816 38.4851 23.4849C37.7818 24.1882 36.828 24.5833 35.8334 24.5833H4.16675C3.17219 24.5833 2.21836 24.1882 1.5151 23.4849C0.811836 22.7816 0.416748 21.8278 0.416748 20.8333ZM4.16675 19.5833C3.83523 19.5833 3.51729 19.7149 3.28286 19.9494C3.04844 20.1838 2.91675 20.5017 2.91675 20.8333C2.91675 21.1648 3.04844 21.4827 3.28286 21.7171C3.51729 21.9516 3.83523 22.0833 4.16675 22.0833H35.8334C36.1649 22.0833 36.4829 21.9516 36.7173 21.7171C36.9517 21.4827 37.0834 21.1648 37.0834 20.8333C37.0834 20.5017 36.9517 20.1838 36.7173 19.9494C36.4829 19.7149 36.1649 19.5833 35.8334 19.5833H4.16675Z" fill="#262522"/>
<path fill-rule="evenodd" clip-rule="evenodd" d="M4.16675 24.5833C3.83523 24.5833 3.51729 24.715 3.28286 24.9494C3.04844 25.1839 2.91675 25.5018 2.91675 25.8333C2.91675 26.1649 3.04844 26.4828 3.28286 26.7172C3.51729 26.9516 3.83523 27.0833 4.16675 27.0833H10.0001C10.3316 27.0833 10.6495 27.215 10.884 27.4494C11.1184 27.6839 11.2501 28.0018 11.2501 28.3333V29.6667C11.2501 30.3076 11.5047 30.9223 11.9579 31.3755C12.4111 31.8287 13.0258 32.0833 13.6667 32.0833C14.3077 32.0833 14.9224 31.8287 15.3756 31.3755C15.8288 30.9223 16.0834 30.3076 16.0834 29.6667V28.3333C16.0834 28.0018 16.2151 27.6839 16.4495 27.4494C16.684 27.215 17.0019 27.0833 17.3334 27.0833H35.8334C36.1649 27.0833 36.4829 26.9516 36.7173 26.7172C36.9517 26.4828 37.0834 26.1649 37.0834 25.8333C37.0834 25.5018 36.9517 25.1839 36.7173 24.9494C36.4829 24.715 36.1649 24.5833 35.8334 24.5833H4.16675ZM0.416748 25.8333C0.416748 24.8388 0.811836 23.8849 1.5151 23.1817C2.21836 22.4784 3.17219 22.0833 4.16675 22.0833H35.8334C36.828 22.0833 37.7818 22.4784 38.4851 23.1817C39.1883 23.8849 39.5834 24.8388 39.5834 25.8333C39.5834 26.8279 39.1883 27.7817 38.4851 28.485C37.7818 29.1882 36.828 29.5833 35.8334 29.5833H18.5834V29.6667C18.5834 30.9706 18.0654 32.2212 17.1434 33.1433C16.2213 34.0653 14.9707 34.5833 13.6667 34.5833C12.3628 34.5833 11.1122 34.0653 10.1901 33.1433C9.26809 32.2212 8.75008 30.9706 8.75008 29.6667V29.5833H4.16675C3.17219 29.5833 2.21836 29.1882 1.5151 28.485C0.811836 27.7817 0.416748 26.8279 0.416748 25.8333ZM12.5501 9.11667C12.7842 9.35104 12.9156 9.66875 12.9156 10C12.9156 10.3312 12.7842 10.649 12.5501 10.8833L10.8834 12.55C10.6465 12.7708 10.333 12.891 10.0092 12.8853C9.68538 12.8796 9.3764 12.7484 9.14738 12.5194C8.91836 12.2903 8.78717 11.9814 8.78146 11.6575C8.77574 11.3337 8.89595 11.0203 9.11675 10.7833L10.7834 9.11667C11.0178 8.88258 11.3355 8.7511 11.6667 8.7511C11.998 8.7511 12.3157 8.88258 12.5501 9.11667ZM20.8834 9.11667C21.1175 9.35104 21.249 9.66875 21.249 10C21.249 10.3312 21.1175 10.649 20.8834 10.8833L19.2167 12.55C19.1023 12.6728 18.9643 12.7713 18.811 12.8396C18.6576 12.908 18.4921 12.9447 18.3243 12.9477C18.1564 12.9506 17.9897 12.9197 17.8341 12.8569C17.6784 12.794 17.5371 12.7004 17.4184 12.5817C17.2997 12.463 17.2061 12.3216 17.1432 12.166C17.0803 12.0103 17.0495 11.8436 17.0524 11.6758C17.0554 11.508 17.0921 11.3424 17.1604 11.1891C17.2288 11.0358 17.3273 10.8978 17.4501 10.7833L19.1167 9.11667C19.3511 8.88258 19.6688 8.7511 20.0001 8.7511C20.3313 8.7511 20.649 8.88258 20.8834 9.11667ZM29.2168 9.11667C29.4508 9.35104 29.5823 9.66875 29.5823 10C29.5823 10.3312 29.4508 10.649 29.2168 10.8833L27.5501 12.55C27.4356 12.6728 27.2976 12.7713 27.1443 12.8396C26.991 12.908 26.8255 12.9447 26.6576 12.9477C26.4898 12.9506 26.3231 12.9197 26.1674 12.8569C26.0118 12.794 25.8704 12.7004 25.7517 12.5817C25.633 12.463 25.5394 12.3216 25.4765 12.166C25.4137 12.0103 25.3828 11.8436 25.3858 11.6758C25.3887 11.508 25.4255 11.3424 25.4938 11.1891C25.5621 11.0358 25.6606 10.8978 25.7834 10.7833L27.4501 9.11667C27.6845 8.88258 28.0022 8.7511 28.3334 8.7511C28.6647 8.7511 28.9824 8.88258 29.2168 9.11667Z" fill="#262522"/>
</g>
<defs>
<clipPath id="clip0_37_3742">
<rect width="40" height="40" fill="white"/>
</clipPath>
</defs>
</svg>
