<svg width="25" height="24" viewBox="0 0 25 24" fill="none" xmlns="http://www.w3.org/2000/svg">
<path d="M15.9024 21V14.0344H18.2347L18.5838 11.3265H15.9024V9.59765C15.9024 8.81364 16.12 8.27934 17.2443 8.27934L18.6783 8.27867V5.85676C18.4302 5.82382 17.5791 5.75006 16.5888 5.75006C14.5213 5.75006 13.106 7.01198 13.106 9.32952V11.3265H10.7677V14.0344H13.106V21H4.5C3.94772 21 3.5 20.5523 3.5 20V4C3.5 3.44772 3.94772 3 4.5 3H20.5C21.0523 3 21.5 3.44772 21.5 4V20C21.5 20.5523 21.0523 21 20.5 21H15.9024Z" fill="#F0EBE1"/>
</svg>
