<svg width="40" height="40" viewBox="0 0 40 40" fill="none" xmlns="http://www.w3.org/2000/svg">
<path fill-rule="evenodd" clip-rule="evenodd" d="M8.89658 7.65831C6.09825 9.47664 4.58325 11.8416 4.58325 14.2716C4.58325 16.7 6.09992 19.065 8.89658 20.8833C11.6799 22.6933 15.6033 23.855 19.9999 23.855C24.3966 23.855 28.3183 22.6933 31.1033 20.8833C33.9016 19.065 35.4166 16.7 35.4166 14.2716C35.4166 11.8416 33.8999 9.47664 31.1033 7.65831C28.3199 5.84998 24.3966 4.68831 19.9999 4.68831C15.6033 4.68831 11.6816 5.84831 8.89658 7.65831ZM7.53325 5.56165C10.7799 3.45165 15.1916 2.18665 19.9999 2.18665C24.8083 2.18665 29.2199 3.45331 32.4666 5.56165C35.6999 7.66498 37.9166 10.7166 37.9166 14.2716C37.9166 17.825 35.6999 20.8766 32.4666 22.9783C29.2199 25.09 24.8083 26.3533 19.9999 26.3533C15.1916 26.3533 10.7799 25.09 7.53325 22.98C4.29992 20.8766 2.08325 17.825 2.08325 14.27C2.08325 10.7166 4.29992 7.66498 7.53325 5.56165Z" fill="#262522"/>
<path fill-rule="evenodd" clip-rule="evenodd" d="M3.24162 12.8167C3.57199 12.7923 3.89851 12.9001 4.14945 13.1164C4.40039 13.3327 4.55523 13.6397 4.57995 13.97L5.13829 21.5117C5.41384 25.2649 7.09924 28.7748 9.85599 31.3366C12.6127 33.8984 16.2367 35.3222 20 35.3222C23.7632 35.3222 27.3872 33.8984 30.1439 31.3366C32.9007 28.7748 34.5861 25.2649 34.8616 21.5117L35.42 13.97C35.4443 13.6394 35.5989 13.3319 35.8499 13.1153C36.1009 12.8987 36.4277 12.7907 36.7583 12.815C37.0889 12.8393 37.3964 12.994 37.613 13.245C37.8296 13.496 37.9376 13.8227 37.9133 14.1533L37.355 21.6967C37.0333 26.0796 35.0652 30.1786 31.846 33.1703C28.6267 36.162 24.3947 37.8248 20 37.8248C15.6052 37.8248 11.3732 36.162 8.15395 33.1703C4.93468 30.1786 2.96659 26.0796 2.64495 21.6967L2.08662 14.155C2.07458 13.9913 2.0949 13.8268 2.14643 13.671C2.19796 13.5151 2.27968 13.3709 2.38693 13.2466C2.49418 13.1224 2.62487 13.0204 2.77151 12.9466C2.91816 12.8729 3.0779 12.8287 3.24162 12.8167Z" fill="#262522"/>
<path fill-rule="evenodd" clip-rule="evenodd" d="M11.6666 9.58337C11.3351 9.58337 11.0172 9.71507 10.7827 9.94949C10.5483 10.1839 10.4166 10.5018 10.4166 10.8334C10.4166 11.1649 10.5483 11.4828 10.7827 11.7173C11.0172 11.9517 11.3351 12.0834 11.6666 12.0834C11.9981 12.0834 12.3161 11.9517 12.5505 11.7173C12.7849 11.4828 12.9166 11.1649 12.9166 10.8334C12.9166 10.5018 12.7849 10.1839 12.5505 9.94949C12.3161 9.71507 11.9981 9.58337 11.6666 9.58337ZM7.91662 10.8334C7.91662 10.3409 8.01362 9.85328 8.20207 9.39831C8.39053 8.94334 8.66675 8.52994 9.01497 8.18172C9.36319 7.8335 9.77659 7.55728 10.2316 7.36882C10.6865 7.18037 11.1742 7.08337 11.6666 7.08337C12.1591 7.08337 12.6467 7.18037 13.1017 7.36882C13.5567 7.55728 13.9701 7.8335 14.3183 8.18172C14.6665 8.52994 14.9427 8.94334 15.1312 9.39831C15.3196 9.85328 15.4166 10.3409 15.4166 10.8334C15.4166 11.8279 15.0215 12.7818 14.3183 13.485C13.615 14.1883 12.6612 14.5834 11.6666 14.5834C10.6721 14.5834 9.71823 14.1883 9.01497 13.485C8.31171 12.7818 7.91662 11.8279 7.91662 10.8334ZM30.8333 12.9167C30.5018 12.9167 30.1838 13.0484 29.9494 13.2828C29.715 13.5172 29.5833 13.8352 29.5833 14.1667C29.5833 14.4982 29.715 14.8162 29.9494 15.0506C30.1838 15.285 30.5018 15.4167 30.8333 15.4167C31.1648 15.4167 31.4827 15.285 31.7172 15.0506C31.9516 14.8162 32.0833 14.4982 32.0833 14.1667C32.0833 13.8352 31.9516 13.5172 31.7172 13.2828C31.4827 13.0484 31.1648 12.9167 30.8333 12.9167ZM27.0833 14.1667C27.0833 13.1721 27.4784 12.2183 28.1816 11.5151C28.8849 10.8118 29.8387 10.4167 30.8333 10.4167C31.8278 10.4167 32.7817 10.8118 33.4849 11.5151C34.1882 12.2183 34.5833 13.1721 34.5833 14.1667C34.5833 15.1613 34.1882 16.1151 33.4849 16.8184C32.7817 17.5216 31.8278 17.9167 30.8333 17.9167C29.8387 17.9167 28.8849 17.5216 28.1816 16.8184C27.4784 16.1151 27.0833 15.1613 27.0833 14.1667ZM23.2766 8.1567C22.7366 8.3367 22.09 8.76504 21.5316 9.45004C20.9733 10.1334 20.6833 10.8534 20.6166 11.42C20.5483 12.0034 20.72 12.2417 20.8083 12.315C20.8983 12.3867 21.165 12.5067 21.7216 12.3217C22.2633 12.1434 22.91 11.715 23.4683 11.03C24.0266 10.3467 24.3166 9.62504 24.3833 9.05837C24.4516 8.47504 24.28 8.23837 24.1916 8.16504C24.1016 8.09337 23.835 7.97337 23.2766 8.1567ZM22.4916 5.78504C23.5333 5.44004 24.7916 5.42837 25.7716 6.22837C26.7516 7.02837 26.995 8.2617 26.8666 9.3517C26.7366 10.4584 26.2183 11.6134 25.4066 12.61C24.5933 13.605 23.5666 14.345 22.5083 14.695C21.4666 15.04 20.2083 15.0517 19.2283 14.2517C18.2483 13.4517 18.005 12.2184 18.1333 11.1284C18.2633 10.0217 18.7816 8.8667 19.5933 7.87004C20.4066 6.87337 21.4333 6.13504 22.4916 5.78504ZM15.7883 13.75C15.9941 13.7501 16.1967 13.8009 16.3781 13.898C16.5595 13.9951 16.7141 14.1355 16.8283 14.3067L20.1616 19.3067C20.2871 19.4949 20.3592 19.7137 20.3701 19.9397C20.381 20.1657 20.3304 20.3904 20.2236 20.5898C20.1169 20.7893 19.958 20.9561 19.7639 21.0723C19.5699 21.1886 19.3479 21.25 19.1216 21.25H12.455C12.2287 21.25 12.0067 21.1886 11.8126 21.0723C11.6186 20.9561 11.4597 20.7893 11.3529 20.5898C11.2462 20.3904 11.1956 20.1657 11.2065 19.9397C11.2174 19.7137 11.2895 19.4949 11.415 19.3067L14.7483 14.3067C14.8624 14.1355 15.0171 13.9951 15.1985 13.898C15.3799 13.8009 15.5825 13.7501 15.7883 13.75ZM14.79 18.75H16.785L15.7883 17.2534L14.79 18.75ZM23.2883 17.0834C23.6198 17.0834 23.9377 17.2151 24.1722 17.4495C24.4066 17.6839 24.5383 18.0018 24.5383 18.3334V21.6667C24.5383 21.9982 24.4066 22.3162 24.1722 22.5506C23.9377 22.785 23.6198 22.9167 23.2883 22.9167C22.9568 22.9167 22.6388 22.785 22.4044 22.5506C22.17 22.3162 22.0383 21.9982 22.0383 21.6667V18.3334C22.0383 18.0018 22.17 17.6839 22.4044 17.4495C22.6388 17.2151 22.9568 17.0834 23.2883 17.0834ZM26.6216 16.25C26.9531 16.25 27.2711 16.3817 27.5055 16.6162C27.7399 16.8506 27.8716 17.1685 27.8716 17.5V20.8334C27.8716 21.1649 27.7399 21.4828 27.5055 21.7173C27.2711 21.9517 26.9531 22.0834 26.6216 22.0834C26.2901 22.0834 25.9722 21.9517 25.7377 21.7173C25.5033 21.4828 25.3716 21.1649 25.3716 20.8334V17.5C25.3716 17.1685 25.5033 16.8506 25.7377 16.6162C25.9722 16.3817 26.2901 16.25 26.6216 16.25ZM6.56995 14.95C6.68604 14.8339 6.82387 14.7417 6.97558 14.6789C7.12729 14.616 7.2899 14.5836 7.45412 14.5836C7.61834 14.5836 7.78095 14.616 7.93266 14.6789C8.08437 14.7417 8.2222 14.8339 8.33829 14.95L10.8383 17.45C10.9611 17.5645 11.0596 17.7025 11.1279 17.8558C11.1962 18.0091 11.233 18.1747 11.2359 18.3425C11.2389 18.5103 11.208 18.6771 11.1452 18.8327C11.0823 18.9883 10.9887 19.1297 10.87 19.2484C10.7513 19.3671 10.6099 19.4607 10.4543 19.5236C10.2986 19.5864 10.1319 19.6173 9.96408 19.6144C9.79625 19.6114 9.63072 19.5747 9.47739 19.5063C9.32406 19.438 9.18606 19.3395 9.07162 19.2167L6.57162 16.7167C6.33754 16.4823 6.20605 16.1646 6.20605 15.8334C6.20605 15.5021 6.33754 15.1844 6.57162 14.95H6.56995Z" fill="#262522"/>
</svg>
