<svg width="40" height="40" viewBox="0 0 40 40" fill="none" xmlns="http://www.w3.org/2000/svg">
<g clip-path="url(#clip0_37_3760)">
<mask id="mask0_37_3760" style="mask-type:luminance" maskUnits="userSpaceOnUse" x="0" y="0" width="40" height="40">
<path d="M0 0H40V40H0V0Z" fill="white"/>
</mask>
<g mask="url(#mask0_37_3760)">
<path fill-rule="evenodd" clip-rule="evenodd" d="M19.3484 3.66658C19.5193 3.6609 19.6896 3.69036 19.8487 3.75314C20.0078 3.81593 20.1524 3.91069 20.2734 4.03158L22.63 6.38825C25.0523 8.81059 26.4131 12.0959 26.4131 15.5216C26.4131 18.9472 25.0523 22.2326 22.63 24.6549L21.4517 25.8333C16.3984 30.8866 8.15336 30.8016 3.11836 25.7666C2.59392 25.2427 2.28766 24.5395 2.26137 23.7987C2.23507 23.0578 2.49071 22.3346 2.9767 21.7749L18.4484 4.09158C18.5613 3.96288 18.6994 3.85875 18.8542 3.78564C19.0091 3.71254 19.1772 3.67201 19.3484 3.66658ZM19.45 6.74325L4.85836 23.4216C4.79033 23.5039 4.75553 23.6087 4.76077 23.7154C4.76601 23.8221 4.81092 23.923 4.8867 23.9983C8.96336 28.0766 15.625 28.1249 19.685 24.0649L20.8634 22.8883C21.8309 21.9209 22.5985 20.7725 23.1221 19.5085C23.6458 18.2445 23.9153 16.8898 23.9153 15.5216C23.9153 14.1534 23.6458 12.7987 23.1221 11.5347C22.5985 10.2707 21.8309 9.12223 20.8634 8.15492L19.45 6.74325Z" fill="#262522"/>
<path fill-rule="evenodd" clip-rule="evenodd" d="M25.7133 16.055C27.524 15.8202 29.3644 16.0036 31.093 16.5913C32.8217 17.179 34.3926 18.1552 35.685 19.445L36.7733 20.5333C36.8938 20.654 36.9884 20.7981 37.0512 20.9567C37.1139 21.1153 37.1436 21.2851 37.1383 21.4556C37.133 21.6261 37.0928 21.7937 37.0203 21.9481C36.9478 22.1025 36.8444 22.2404 36.7166 22.3534L19.1033 37.9234C18.5531 38.4094 17.8383 38.6675 17.1045 38.6452C16.3707 38.6229 15.673 38.3219 15.1533 37.8034C13.7783 36.43 13.0566 35.0434 12.7733 33.51C12.5 32.0384 12.65 30.5067 12.85 28.9184C12.8674 28.753 12.9177 28.5928 12.9978 28.4472C13.0779 28.3015 13.1862 28.1733 13.3165 28.07C13.4468 27.9667 13.5963 27.8905 13.7564 27.8457C13.9166 27.801 14.084 27.7886 14.2489 27.8093C14.4139 27.83 14.573 27.8835 14.7171 27.9665C14.8611 28.0494 14.9871 28.1603 15.0878 28.2926C15.1885 28.4249 15.2617 28.576 15.3033 28.7369C15.3449 28.8979 15.354 29.0655 15.33 29.23C15.1283 30.8317 15.0366 32.0084 15.23 33.055C15.4133 34.0384 15.865 34.98 16.92 36.035C17.0633 36.18 17.295 36.185 17.4483 36.0517L34.065 21.36L33.9166 21.2134C32.8938 20.1929 31.6505 19.4207 30.2823 18.9564C28.9141 18.492 27.4576 18.3479 26.025 18.535C25.8605 18.559 25.6928 18.55 25.5319 18.5084C25.3709 18.4668 25.2199 18.3935 25.0876 18.2929C24.9553 18.1922 24.8444 18.0662 24.7614 17.9221C24.6784 17.7781 24.625 17.6189 24.6043 17.454C24.5835 17.289 24.5959 17.1216 24.6407 16.9615C24.6854 16.8014 24.7617 16.6518 24.865 16.5216C24.9682 16.3913 25.0965 16.2829 25.2421 16.2028C25.3878 16.1227 25.548 16.0725 25.7133 16.055Z" fill="#262522"/>
<path fill-rule="evenodd" clip-rule="evenodd" d="M3.32846 24.21C3.56283 23.9759 3.88054 23.8444 4.21179 23.8444C4.54304 23.8444 4.86075 23.9759 5.09512 24.21L16.6685 35.7833C16.7913 35.8977 16.8898 36.0357 16.9581 36.1891C17.0264 36.3424 17.0631 36.5079 17.0661 36.6758C17.0691 36.8436 17.0382 37.0103 16.9753 37.166C16.9125 37.3216 16.8189 37.463 16.7002 37.5817C16.5815 37.7004 16.4401 37.794 16.2845 37.8568C16.1288 37.9197 15.9621 37.9506 15.7943 37.9476C15.6264 37.9447 15.4609 37.9079 15.3076 37.8396C15.1542 37.7713 15.0162 37.6728 14.9018 37.55L3.32846 25.9783C3.09437 25.7439 2.96289 25.4262 2.96289 25.095C2.96289 24.7637 3.09437 24.446 3.32846 24.2116V24.21ZM27.8551 2.44163C29.3258 1.76258 30.9694 1.55094 32.5642 1.83524C34.1589 2.11955 35.6281 2.88612 36.7735 4.03156C37.919 5.177 38.6855 6.64618 38.9698 8.24093C39.2541 9.83568 39.0425 11.4793 38.3635 12.95C39.2111 14.3083 39.5737 15.9137 39.3921 17.5045C39.2105 19.0952 38.4954 20.5776 37.3635 21.71C37.1278 21.9378 36.8121 22.0639 36.4844 22.0612C36.1566 22.0585 35.843 21.9272 35.6112 21.6956C35.3793 21.4639 35.2477 21.1505 35.2447 20.8227C35.2417 20.495 35.3675 20.1792 35.5951 19.9433C36.3941 19.1447 36.87 18.0792 36.9315 16.9513C36.993 15.8233 36.6358 14.7124 35.9285 13.8316C35.7682 13.6328 35.6727 13.3896 35.6548 13.1348C35.637 12.8801 35.6976 12.6259 35.8285 12.4066C36.4448 11.3709 36.6983 10.1592 36.549 8.96326C36.3996 7.76728 35.8559 6.65521 35.0037 5.80287C34.1515 4.95052 33.0396 4.40653 31.8437 4.25689C30.6477 4.10725 29.436 4.36051 28.4001 4.97663C28.1807 5.1079 27.9262 5.1687 27.6711 5.15082C27.416 5.13294 27.1725 5.03723 26.9735 4.87663C26.0928 4.16974 24.9823 3.81283 23.8547 3.87434C22.7271 3.93586 21.662 4.41147 20.8635 5.20996C20.6265 5.43076 20.3131 5.55096 19.9893 5.54525C19.6654 5.53954 19.3564 5.40835 19.1274 5.17933C18.8984 4.95031 18.7672 4.64133 18.7615 4.3175C18.7558 3.99366 18.876 3.68025 19.0968 3.44329C20.2288 2.31145 21.7108 1.59632 23.3012 1.41443C24.8916 1.23253 26.4968 1.5946 27.8551 2.44163Z" fill="#262522"/>
<path fill-rule="evenodd" clip-rule="evenodd" d="M33.6035 13.1667C33.6035 12.8351 33.4718 12.5172 33.2374 12.2828C33.0029 12.0484 32.685 11.9167 32.3535 11.9167H29.9968C29.6653 11.9167 29.3473 12.0484 29.1129 12.2828C28.8785 12.5172 28.7468 12.8351 28.7468 13.1667C28.7468 13.4982 28.8785 13.8161 29.1129 14.0505C29.3473 14.285 29.6653 14.4167 29.9968 14.4167H32.3535C32.685 14.4167 33.0029 14.285 33.2374 14.0505C33.4718 13.8161 33.6035 13.4982 33.6035 13.1667ZM26.3901 8.45166C26.3901 9.14333 26.9501 9.70166 27.6401 9.70166H29.9968C30.3283 9.70166 30.6463 9.56996 30.8807 9.33554C31.1151 9.10112 31.2468 8.78318 31.2468 8.45166C31.2468 8.12014 31.1151 7.8022 30.8807 7.56778C30.6463 7.33336 30.3283 7.20166 29.9968 7.20166H27.6401C27.3086 7.20166 26.9907 7.33336 26.7563 7.56778C26.5218 7.8022 26.3901 8.12014 26.3901 8.45166Z" fill="#262522"/>
</g>
</g>
<defs>
<clipPath id="clip0_37_3760">
<rect width="40" height="40" fill="white"/>
</clipPath>
</defs>
</svg>
